<mxfile host="app.diagrams.net" agent="Mozilla/5.0 (Windows NT 10.0; Win64; x64) AppleWebKit/537.36 (KHTML, like Gecko) Chrome/137.0.0.0 Safari/537.36" version="28.2.0">
  <diagram name="Seite-1" id="W8E7Fu8FmdDjgyTMKueG">
    <mxGraphModel dx="1422" dy="947" grid="1" gridSize="10" guides="1" tooltips="1" connect="1" arrows="1" fold="1" page="1" pageScale="1" pageWidth="827" pageHeight="1169" math="0" shadow="0">
      <root>
        <mxCell id="0" />
        <mxCell id="1" parent="0" />
        <mxCell id="DQWL6Y3L35b5UZnqnHU8-3" value="&lt;div&gt;Feedback Loop (optional)&lt;/div&gt;" style="rounded=0;whiteSpace=wrap;html=1;verticalAlign=top;fontSize=16;fontStyle=1;gradientColor=none;fillColor=default;spacingTop=6;" parent="1" vertex="1">
          <mxGeometry x="1150" y="320" width="380" height="460" as="geometry" />
        </mxCell>
        <mxCell id="DQWL6Y3L35b5UZnqnHU8-1" value="Retrieval Process" style="rounded=0;whiteSpace=wrap;html=1;verticalAlign=top;fontSize=16;fontStyle=1;fillColor=default;spacingTop=6;" parent="1" vertex="1">
          <mxGeometry x="470" y="320" width="620" height="1020" as="geometry" />
        </mxCell>
        <mxCell id="DQWL6Y3L35b5UZnqnHU8-2" value="Training Pipeline" style="rounded=0;whiteSpace=wrap;html=1;verticalAlign=top;fontSize=16;fontStyle=1;fillColor=default;spacingTop=6;labelBackgroundColor=none;" parent="1" vertex="1">
          <mxGeometry x="30" y="320" width="380" height="450" as="geometry" />
        </mxCell>
        <mxCell id="DQWL6Y3L35b5UZnqnHU8-33" value="logic query composer" style="whiteSpace=wrap;strokeWidth=1;fillColor=#dae8fc;gradientColor=#7ea6e0;strokeColor=#6c8ebf;verticalAlign=top;align=left;spacingLeft=6;" parent="1" vertex="1">
          <mxGeometry x="650" y="660" width="260" height="120" as="geometry" />
        </mxCell>
        <mxCell id="DQWL6Y3L35b5UZnqnHU8-61" style="edgeStyle=orthogonalEdgeStyle;rounded=0;orthogonalLoop=1;jettySize=auto;html=1;entryX=0.5;entryY=0;entryDx=0;entryDy=0;fontFamily=Helvetica;fontSize=12;fontColor=default;" parent="1" source="DQWL6Y3L35b5UZnqnHU8-36" target="DQWL6Y3L35b5UZnqnHU8-37" edge="1">
          <mxGeometry relative="1" as="geometry" />
        </mxCell>
        <mxCell id="DQWL6Y3L35b5UZnqnHU8-36" value="Logical Structure" style="whiteSpace=wrap;strokeWidth=1;strokeColor=#999999;" parent="1" vertex="1">
          <mxGeometry x="720" y="820" width="120" height="60" as="geometry" />
        </mxCell>
        <mxCell id="DQWL6Y3L35b5UZnqnHU8-62" style="edgeStyle=orthogonalEdgeStyle;rounded=0;orthogonalLoop=1;jettySize=auto;html=1;fontFamily=Helvetica;fontSize=12;fontColor=default;" parent="1" source="DQWL6Y3L35b5UZnqnHU8-37" target="DQWL6Y3L35b5UZnqnHU8-38" edge="1">
          <mxGeometry relative="1" as="geometry" />
        </mxCell>
        <mxCell id="DQWL6Y3L35b5UZnqnHU8-37" value="Manual SQL Composition" style="whiteSpace=wrap;strokeWidth=1;fillColor=#f5f5f5;gradientColor=#CCCCCC;strokeColor=#999999;" parent="1" vertex="1">
          <mxGeometry x="700" y="920" width="160" height="60" as="geometry" />
        </mxCell>
        <mxCell id="DQWL6Y3L35b5UZnqnHU8-63" style="edgeStyle=orthogonalEdgeStyle;rounded=0;orthogonalLoop=1;jettySize=auto;html=1;fontFamily=Helvetica;fontSize=12;fontColor=default;" parent="1" source="DQWL6Y3L35b5UZnqnHU8-38" target="DQWL6Y3L35b5UZnqnHU8-39" edge="1">
          <mxGeometry relative="1" as="geometry" />
        </mxCell>
        <mxCell id="DQWL6Y3L35b5UZnqnHU8-38" value="SQL" style="whiteSpace=wrap;strokeWidth=1;strokeColor=#999999;" parent="1" vertex="1">
          <mxGeometry x="720" y="1020" width="120" height="60" as="geometry" />
        </mxCell>
        <mxCell id="DQWL6Y3L35b5UZnqnHU8-64" style="edgeStyle=orthogonalEdgeStyle;rounded=0;orthogonalLoop=1;jettySize=auto;html=1;fontFamily=Helvetica;fontSize=12;fontColor=default;" parent="1" source="DQWL6Y3L35b5UZnqnHU8-39" target="DQWL6Y3L35b5UZnqnHU8-40" edge="1">
          <mxGeometry relative="1" as="geometry" />
        </mxCell>
        <mxCell id="DQWL6Y3L35b5UZnqnHU8-39" value="Database Execution" style="whiteSpace=wrap;strokeWidth=1;fillColor=#f5f5f5;gradientColor=#CCCCCC;strokeColor=#999999;glass=0;shadow=0;rounded=0;" parent="1" vertex="1">
          <mxGeometry x="700" y="1120" width="160" height="60" as="geometry" />
        </mxCell>
        <mxCell id="DQWL6Y3L35b5UZnqnHU8-41" value="units" style="whiteSpace=wrap;strokeWidth=1;fillColor=#dae8fc;gradientColor=#7ea6e0;strokeColor=#6c8ebf;verticalAlign=top;align=left;spacingLeft=6;" parent="1" vertex="1">
          <mxGeometry x="650" y="500" width="260" height="120" as="geometry" />
        </mxCell>
        <mxCell id="DQWL6Y3L35b5UZnqnHU8-40" value="Retrieval" style="whiteSpace=wrap;strokeWidth=1;strokeColor=#999999;" parent="1" vertex="1">
          <mxGeometry x="720" y="1220" width="120" height="60" as="geometry" />
        </mxCell>
        <mxCell id="DQWL6Y3L35b5UZnqnHU8-51" value="synthetics + units" style="whiteSpace=wrap;strokeWidth=1;fillColor=#dae8fc;gradientColor=#7ea6e0;strokeColor=#6c8ebf;verticalAlign=top;align=left;spacingLeft=6;" parent="1" vertex="1">
          <mxGeometry x="1210" y="500" width="260" height="120" as="geometry" />
        </mxCell>
        <mxCell id="DQWL6Y3L35b5UZnqnHU8-66" style="edgeStyle=orthogonalEdgeStyle;rounded=0;orthogonalLoop=1;jettySize=auto;html=1;fontFamily=Helvetica;fontSize=12;fontColor=default;" parent="1" source="DQWL6Y3L35b5UZnqnHU8-52" target="DQWL6Y3L35b5UZnqnHU8-50" edge="1">
          <mxGeometry relative="1" as="geometry" />
        </mxCell>
        <mxCell id="DQWL6Y3L35b5UZnqnHU8-52" value="New Structured Data&#xa;and&#xa;Natural-language Query" style="whiteSpace=wrap;strokeWidth=1;strokeColor=#999999;" parent="1" vertex="1">
          <mxGeometry x="1240" y="400" width="200" height="60" as="geometry" />
        </mxCell>
        <mxCell id="DQWL6Y3L35b5UZnqnHU8-53" value="NLP Component Update" style="whiteSpace=wrap;strokeWidth=1;fillColor=#f5f5f5;gradientColor=#CCCCCC;strokeColor=#999999;" parent="1" vertex="1">
          <mxGeometry x="1260" y="660" width="160" height="60" as="geometry" />
        </mxCell>
        <mxCell id="DQWL6Y3L35b5UZnqnHU8-59" style="edgeStyle=orthogonalEdgeStyle;rounded=0;orthogonalLoop=1;jettySize=auto;html=1;fontFamily=Helvetica;fontSize=12;fontColor=default;" parent="1" source="DQWL6Y3L35b5UZnqnHU8-35" target="DQWL6Y3L35b5UZnqnHU8-32" edge="1">
          <mxGeometry relative="1" as="geometry" />
        </mxCell>
        <mxCell id="56x2TEef05zbnp8twlGz-4" style="edgeStyle=orthogonalEdgeStyle;rounded=0;orthogonalLoop=1;jettySize=auto;html=1;entryX=0;entryY=0.5;entryDx=0;entryDy=0;" edge="1" parent="1" source="DQWL6Y3L35b5UZnqnHU8-35" target="56x2TEef05zbnp8twlGz-2">
          <mxGeometry relative="1" as="geometry" />
        </mxCell>
        <mxCell id="56x2TEef05zbnp8twlGz-5" style="edgeStyle=orthogonalEdgeStyle;rounded=0;orthogonalLoop=1;jettySize=auto;html=1;entryX=1;entryY=0.5;entryDx=0;entryDy=0;" edge="1" parent="1" source="DQWL6Y3L35b5UZnqnHU8-35" target="56x2TEef05zbnp8twlGz-1">
          <mxGeometry relative="1" as="geometry" />
        </mxCell>
        <mxCell id="DQWL6Y3L35b5UZnqnHU8-35" value="Entity Extraction" style="whiteSpace=wrap;strokeWidth=1;fillColor=#f5f5f5;gradientColor=#CCCCCC;strokeColor=#999999;gradientDirection=south;" parent="1" vertex="1">
          <mxGeometry x="725" y="530" width="110" height="60" as="geometry" />
        </mxCell>
        <mxCell id="DQWL6Y3L35b5UZnqnHU8-70" style="edgeStyle=orthogonalEdgeStyle;rounded=0;orthogonalLoop=1;jettySize=auto;html=1;fontFamily=Helvetica;fontSize=12;fontColor=default;" parent="1" source="DQWL6Y3L35b5UZnqnHU8-50" target="DQWL6Y3L35b5UZnqnHU8-53" edge="1">
          <mxGeometry relative="1" as="geometry" />
        </mxCell>
        <mxCell id="DQWL6Y3L35b5UZnqnHU8-50" value="Update of&#xa;Synthetic Annotated Training&#xa;Sentences" style="whiteSpace=wrap;strokeWidth=1;strokeColor=#999999;" parent="1" vertex="1">
          <mxGeometry x="1240" y="530" width="200" height="60" as="geometry" />
        </mxCell>
        <mxCell id="DQWL6Y3L35b5UZnqnHU8-7" value="Structured Data" style="whiteSpace=wrap;strokeWidth=1;strokeColor=#999999;" parent="1" vertex="1">
          <mxGeometry x="140" y="400" width="160" height="60" as="geometry" />
        </mxCell>
        <mxCell id="DQWL6Y3L35b5UZnqnHU8-8" value="NLP Component Update" style="whiteSpace=wrap;strokeWidth=1;fillColor=#f5f5f5;gradientColor=#CCCCCC;strokeColor=#999999;" parent="1" vertex="1">
          <mxGeometry x="140" y="650" width="160" height="60" as="geometry" />
        </mxCell>
        <mxCell id="DQWL6Y3L35b5UZnqnHU8-6" value="synthetics + units" style="whiteSpace=wrap;strokeWidth=1;fillColor=#dae8fc;gradientColor=#7ea6e0;strokeColor=#6c8ebf;verticalAlign=top;align=left;spacingLeft=6;" parent="1" vertex="1">
          <mxGeometry x="90" y="490" width="260" height="120" as="geometry" />
        </mxCell>
        <mxCell id="DQWL6Y3L35b5UZnqnHU8-9" value="" style="curved=1;startArrow=none;endArrow=block;exitX=0.5;exitY=1;entryX=0.5;entryY=0;rounded=0;exitDx=0;exitDy=0;entryDx=0;entryDy=0;" parent="1" source="DQWL6Y3L35b5UZnqnHU8-7" target="DQWL6Y3L35b5UZnqnHU8-5" edge="1">
          <mxGeometry relative="1" as="geometry">
            <Array as="points" />
          </mxGeometry>
        </mxCell>
        <mxCell id="DQWL6Y3L35b5UZnqnHU8-10" value="" style="curved=1;startArrow=none;endArrow=block;exitX=0.5;exitY=1;entryX=0.5;entryY=0;rounded=0;entryDx=0;entryDy=0;exitDx=0;exitDy=0;" parent="1" source="DQWL6Y3L35b5UZnqnHU8-5" target="DQWL6Y3L35b5UZnqnHU8-8" edge="1">
          <mxGeometry relative="1" as="geometry">
            <Array as="points" />
          </mxGeometry>
        </mxCell>
        <mxCell id="DQWL6Y3L35b5UZnqnHU8-5" value="Synthetic Annotated Training Sentences" style="whiteSpace=wrap;strokeWidth=1;strokeColor=#999999;" parent="1" vertex="1">
          <mxGeometry x="120" y="520" width="200" height="60" as="geometry" />
        </mxCell>
        <mxCell id="DQWL6Y3L35b5UZnqnHU8-60" style="edgeStyle=orthogonalEdgeStyle;rounded=0;orthogonalLoop=1;jettySize=auto;html=1;fontFamily=Helvetica;fontSize=12;fontColor=default;" parent="1" source="DQWL6Y3L35b5UZnqnHU8-32" target="DQWL6Y3L35b5UZnqnHU8-36" edge="1">
          <mxGeometry relative="1" as="geometry" />
        </mxCell>
        <mxCell id="DQWL6Y3L35b5UZnqnHU8-32" value="Semantic and Logical Analysis" style="whiteSpace=wrap;strokeWidth=1;strokeColor=#999999;" parent="1" vertex="1">
          <mxGeometry x="680" y="690" width="200" height="60" as="geometry" />
        </mxCell>
        <mxCell id="DQWL6Y3L35b5UZnqnHU8-34" value="Natural-language Query" style="whiteSpace=wrap;strokeWidth=1;glass=0;strokeColor=#999999;" parent="1" vertex="1">
          <mxGeometry x="700" y="400" width="160" height="60" as="geometry" />
        </mxCell>
        <mxCell id="DQWL6Y3L35b5UZnqnHU8-58" style="edgeStyle=orthogonalEdgeStyle;rounded=0;orthogonalLoop=1;jettySize=auto;html=1;entryX=0.5;entryY=0;entryDx=0;entryDy=0;fontFamily=Helvetica;fontSize=12;fontColor=default;" parent="1" source="DQWL6Y3L35b5UZnqnHU8-34" target="DQWL6Y3L35b5UZnqnHU8-35" edge="1">
          <mxGeometry relative="1" as="geometry" />
        </mxCell>
        <mxCell id="56x2TEef05zbnp8twlGz-1" value="domain-specific&#xa;Entity and Span Rules" style="whiteSpace=wrap;strokeWidth=1;strokeColor=#999999;" vertex="1" parent="1">
          <mxGeometry x="530" y="530" width="160" height="60" as="geometry" />
        </mxCell>
        <mxCell id="56x2TEef05zbnp8twlGz-2" value="domain-specific&#xa;(Phrase)Matcher" style="whiteSpace=wrap;strokeWidth=1;strokeColor=#999999;" vertex="1" parent="1">
          <mxGeometry x="870" y="530" width="160" height="60" as="geometry" />
        </mxCell>
      </root>
    </mxGraphModel>
  </diagram>
</mxfile>
